<?xml version="1.0" standalone="no"?>
<!DOCTYPE svg PUBLIC "-//W3C//DTD SVG 20010904//EN"
 "http://www.w3.org/TR/2001/REC-SVG-20010904/DTD/svg10.dtd">
<svg version="1.0" xmlns="http://www.w3.org/2000/svg"
 width="556.000000pt" height="556.000000pt" viewBox="0 0 556.000000 556.000000"
 preserveAspectRatio="xMidYMid meet">
<metadata>
Created by potrace 1.14, written by Peter Selinger 2001-2017
</metadata>
<g transform="translate(0.000000,556.000000) scale(0.100000,-0.100000)"
fill="#000000" stroke="none">
<path d="M2648 5425 c-2 -2 -32 -6 -68 -9 -84 -9 -129 -15 -160 -21 -13 -2
-42 -7 -65 -11 -147 -21 -397 -97 -579 -175 -137 -58 -333 -161 -347 -182 -3
-5 -10 -9 -15 -9 -32 0 -362 -257 -469 -365 -139 -139 -259 -282 -331 -393
-16 -25 -35 -51 -41 -58 -7 -7 -13 -19 -13 -27 0 -7 -4 -15 -8 -17 -13 -5 -74
-112 -134 -233 -46 -92 -61 -126 -83 -185 -1 -3 -5 -12 -8 -20 -22 -54 -55
-150 -51 -150 2 0 0 -9 -6 -19 -11 -22 -61 -211 -66 -256 -2 -16 -7 -37 -9
-46 -3 -9 -8 -34 -11 -55 -3 -22 -7 -52 -10 -69 -19 -128 -25 -458 -11 -590
14 -119 34 -245 52 -315 8 -30 16 -66 19 -80 13 -71 97 -307 153 -430 144
-317 366 -620 629 -858 108 -98 119 -107 154 -132 19 -13 46 -34 59 -47 13
-13 29 -23 37 -23 7 0 14 -4 16 -8 8 -21 211 -144 353 -215 239 -119 518 -209
765 -247 41 -6 86 -13 100 -16 109 -17 437 -24 555 -11 33 4 85 9 115 12 30 3
78 9 105 15 28 5 61 12 75 14 14 3 51 12 83 19 31 8 57 12 57 9 0 -3 5 -1 12
6 7 7 20 12 29 12 21 0 191 54 236 75 17 8 36 15 41 15 6 0 27 9 49 19 21 11
83 41 137 67 86 41 317 178 357 212 8 7 55 45 104 84 176 142 299 267 423 428
31 41 65 84 74 94 10 11 18 26 18 33 0 7 4 13 9 13 5 0 14 13 21 30 7 16 16
30 21 30 5 0 9 5 9 11 0 6 8 23 19 37 16 23 33 54 102 182 12 22 74 154 75
160 1 5 18 50 31 80 3 8 7 17 8 20 1 3 5 14 9 25 4 11 12 31 16 45 4 14 11 34
16 45 11 32 71 259 79 304 3 14 7 37 10 50 2 13 7 49 11 80 3 31 8 65 11 76
22 104 21 547 -2 665 -4 22 -9 63 -19 145 -2 11 -5 29 -9 40 -3 11 -8 32 -11
47 -20 115 -78 304 -144 468 -5 14 -10 28 -11 32 -3 19 -120 241 -163 311 -26
43 -48 80 -48 83 0 3 -61 91 -97 139 -81 108 -206 249 -287 324 -21 20 -48 45
-60 56 -17 17 -103 88 -166 138 -138 111 -418 270 -589 336 -25 10 -55 22 -66
26 -11 5 -22 9 -25 10 -3 0 -41 13 -85 27 -76 25 -226 66 -270 73 -56 10 -216
35 -260 41 -46 6 -451 14 -457 9z"/>
</g>
</svg>
